<svg width="17" height="18" viewBox="0 0 17 18" fill="none" xmlns="http://www.w3.org/2000/svg">
<g clip-path="url(#clip0_34_197)">
<path d="M9.67178 1.48536C9.57266 1.46711 9.47073 1.47089 9.37323 1.49642C9.27573 1.52195 9.18503 1.5686 9.10757 1.63308C9.0301 1.69756 8.96776 1.77828 8.92496 1.86953C8.88217 1.96078 8.85996 2.06033 8.85991 2.16112V4.14027C7.71302 3.98903 6.54757 4.20086 5.52726 4.74601C4.50695 5.29116 3.68305 6.14224 3.17129 7.1797C2.65953 8.21716 2.48562 9.38888 2.674 10.5303C2.86238 11.6716 3.40357 12.7253 4.22156 13.5433C5.03956 14.3613 6.09325 14.9025 7.23462 15.0909C8.376 15.2793 9.54771 15.1053 10.5852 14.5936C11.6226 14.0818 12.4737 13.2579 13.0189 12.2376C13.564 11.2173 13.7758 10.0519 13.6246 8.90497H15.6086C15.7094 8.90492 15.8089 8.88271 15.9002 8.83991C15.9914 8.79711 16.0721 8.73477 16.1366 8.6573C16.2011 8.57984 16.2477 8.48914 16.2733 8.39164C16.2988 8.29414 16.3026 8.19222 16.2843 8.09309C15.9758 6.45388 15.1794 4.94606 13.9995 3.76703C12.8196 2.58801 11.3112 1.79274 9.67178 1.48536ZM10.9222 10.2799H9.35693C9.25195 10.4622 9.1064 10.6179 8.93157 10.7349C8.75673 10.852 8.5573 10.9272 8.34873 10.9548C8.14015 10.9824 7.92802 10.9616 7.72877 10.894C7.52952 10.8264 7.3485 10.7139 7.19973 10.5651C7.05096 10.4164 6.93843 10.2354 6.87086 10.0361C6.80329 9.83685 6.78249 9.62473 6.81007 9.41615C6.83766 9.20757 6.91288 9.00814 7.02993 8.83331C7.14697 8.65847 7.30268 8.51293 7.48501 8.40794V6.15518C7.48501 5.97286 7.55744 5.798 7.68636 5.66908C7.81528 5.54016 7.99014 5.46773 8.17246 5.46773C8.35478 5.46773 8.52964 5.54016 8.65856 5.66908C8.78748 5.798 8.85991 5.97286 8.85991 6.15518V8.40794C9.06585 8.52775 9.23712 8.69903 9.35693 8.90497H10.9222C11.1046 8.90497 11.2794 8.97739 11.4083 9.10631C11.5373 9.23524 11.6097 9.41009 11.6097 9.59241C11.6097 9.77473 11.5373 9.94959 11.4083 10.0785C11.2794 10.2074 11.1046 10.2799 10.9222 10.2799ZM1.97582 4.75829C2.10926 4.78366 2.2322 4.84799 2.32911 4.94317C2.42602 5.03835 2.49257 5.1601 2.52034 5.29307C2.54812 5.42603 2.53588 5.56424 2.48517 5.69026C2.43447 5.81627 2.34756 5.92444 2.23544 6.00111C2.12331 6.07778 1.99098 6.11951 1.85515 6.12104C1.71933 6.12257 1.5861 6.08382 1.47227 6.0097C1.35845 5.93557 1.26913 5.82939 1.2156 5.70454C1.16207 5.5797 1.14673 5.4418 1.17151 5.30825C1.18802 5.21923 1.22195 5.13435 1.27136 5.05849C1.32077 4.98262 1.38467 4.91726 1.4594 4.86616C1.53414 4.81506 1.61823 4.77923 1.70685 4.76072C1.79547 4.7422 1.88688 4.74138 1.97582 4.75829ZM0.875904 7.49914C1.00935 7.52451 1.13228 7.58884 1.2292 7.68402C1.32611 7.7792 1.39265 7.90095 1.42043 8.03392C1.4482 8.16688 1.43596 8.30509 1.38526 8.43111C1.33455 8.55712 1.24765 8.66529 1.13552 8.74196C1.02339 8.81863 0.891065 8.86036 0.75524 8.86189C0.619415 8.86342 0.486181 8.82467 0.372356 8.75055C0.258531 8.67642 0.169218 8.57024 0.115689 8.44539C0.0621599 8.32055 0.0468152 8.18265 0.0715916 8.0491C0.0881177 7.96029 0.121984 7.87561 0.171255 7.7999C0.220526 7.72419 0.284235 7.65893 0.358741 7.60785C0.433246 7.55678 0.517088 7.52089 0.605472 7.50223C0.693856 7.48358 0.785051 7.48253 0.873842 7.49914H0.875904ZM6.88556 16.3452C7.01911 16.3707 7.14209 16.4353 7.23894 16.5308C7.33579 16.6262 7.40216 16.7482 7.42966 16.8814C7.45715 17.0146 7.44454 17.1529 7.39342 17.2789C7.34229 17.4049 7.25495 17.5129 7.14244 17.5892C7.02993 17.6656 6.8973 17.7069 6.76133 17.7078C6.62536 17.7088 6.49215 17.6694 6.37856 17.5947C6.26497 17.52 6.17609 17.4132 6.12317 17.288C6.07025 17.1627 6.05566 17.0246 6.08125 16.891C6.11557 16.7124 6.21927 16.5547 6.36963 16.4524C6.52 16.3501 6.70477 16.3116 6.8835 16.3452H6.88556ZM4.05328 2.6492C4.18673 2.67457 4.30966 2.73891 4.40657 2.83409C4.50349 2.92926 4.57003 3.05102 4.5978 3.18398C4.62558 3.31695 4.61334 3.45516 4.56263 3.58117C4.51193 3.70719 4.42503 3.81536 4.3129 3.89203C4.20077 3.96869 4.06844 4.01043 3.93262 4.01195C3.79679 4.01348 3.66356 3.97474 3.54973 3.90061C3.43591 3.82649 3.3466 3.7203 3.29307 3.59546C3.23954 3.47062 3.22419 3.33271 3.24897 3.19916C3.26548 3.11014 3.29942 3.02527 3.34882 2.9494C3.39823 2.87354 3.46213 2.80818 3.53687 2.75708C3.6116 2.70598 3.69569 2.67014 3.78431 2.65163C3.87294 2.63312 3.96434 2.63229 4.05328 2.6492ZM6.92268 1.48673C7.05591 1.51447 7.17791 1.58114 7.27322 1.67827C7.36853 1.77541 7.43287 1.89865 7.45808 2.03238C7.48329 2.16612 7.46824 2.30432 7.41484 2.42949C7.36144 2.55467 7.27209 2.66117 7.15811 2.73552C7.04412 2.80987 6.91064 2.84872 6.77456 2.84714C6.63848 2.84556 6.50593 2.80363 6.39371 2.72666C6.28148 2.64969 6.19462 2.54114 6.14414 2.41476C6.09365 2.28838 6.08182 2.14986 6.11012 2.01675C6.14794 1.83891 6.25467 1.68329 6.40696 1.58396C6.55925 1.48462 6.74468 1.44966 6.92268 1.48673ZM0.0839656 10.9989C0.109336 10.8655 0.173671 10.7425 0.268849 10.6456C0.364027 10.5487 0.485782 10.4822 0.618746 10.4544C0.75171 10.4266 0.889922 10.4389 1.01594 10.4896C1.14195 10.5403 1.25012 10.6272 1.32679 10.7393C1.40346 10.8514 1.44519 10.9838 1.44672 11.1196C1.44825 11.2554 1.4095 11.3887 1.33538 11.5025C1.26125 11.6163 1.15506 11.7056 1.03022 11.7591C0.90538 11.8127 0.767478 11.828 0.633923 11.8032C0.544908 11.7867 0.460031 11.7528 0.384166 11.7034C0.308301 11.654 0.242942 11.5901 0.191841 11.5153C0.140741 11.4406 0.104906 11.3565 0.0863935 11.2679C0.0678811 11.1793 0.067056 11.0879 0.0839656 10.9989ZM1.23956 13.7233C1.26493 13.5898 1.32927 13.4669 1.42445 13.37C1.51962 13.2731 1.64138 13.2065 1.77434 13.1788C1.90731 13.151 2.04552 13.1632 2.17153 13.2139C2.29755 13.2646 2.40572 13.3515 2.48239 13.4637C2.55905 13.5758 2.60079 13.7081 2.60232 13.8439C2.60384 13.9798 2.5651 14.113 2.49097 14.2268C2.41685 14.3407 2.31066 14.43 2.18582 14.4835C2.06098 14.537 1.92308 14.5524 1.78952 14.5276C1.7005 14.5111 1.61563 14.4771 1.53976 14.4277C1.4639 14.3783 1.39854 14.3144 1.34744 14.2397C1.29634 14.165 1.2605 14.0809 1.24199 13.9922C1.22348 13.9036 1.22265 13.8122 1.23956 13.7233ZM3.33765 15.7794C3.36302 15.646 3.42735 15.5231 3.52253 15.4261C3.61771 15.3292 3.73947 15.2627 3.87243 15.2349C4.00539 15.2071 4.14361 15.2194 4.26962 15.2701C4.39564 15.3208 4.5038 15.4077 4.58047 15.5198C4.65714 15.6319 4.69887 15.7643 4.7004 15.9001C4.70193 16.0359 4.66319 16.1692 4.58906 16.283C4.51493 16.3968 4.40875 16.4861 4.28391 16.5396C4.15906 16.5932 4.02116 16.6085 3.88761 16.5837C3.79859 16.5672 3.71371 16.5333 3.63785 16.4839C3.56198 16.4345 3.49663 16.3706 3.44553 16.2958C3.39443 16.2211 3.35859 16.137 3.34008 16.0484C3.32157 15.9598 3.32074 15.8684 3.33765 15.7794ZM14.3691 14.4272C14.2357 14.4019 14.1127 14.3375 14.0158 14.2423C13.9189 14.1472 13.8524 14.0254 13.8246 13.8924C13.7968 13.7595 13.809 13.6213 13.8597 13.4953C13.9105 13.3692 13.9974 13.2611 14.1095 13.1844C14.2216 13.1077 14.3539 13.066 14.4898 13.0645C14.6256 13.0629 14.7588 13.1017 14.8727 13.1758C14.9865 13.2499 15.0758 13.3561 15.1293 13.481C15.1828 13.6058 15.1982 13.7437 15.1734 13.8773C15.1568 13.9662 15.1228 14.051 15.0734 14.1268C15.024 14.2026 14.96 14.2679 14.8853 14.3189C14.8106 14.3699 14.7265 14.4057 14.6379 14.4242C14.5494 14.4427 14.458 14.4435 14.3691 14.4265V14.4272ZM12.2916 16.5356C12.1582 16.5103 12.0353 16.4459 11.9383 16.3507C11.8414 16.2556 11.7749 16.1338 11.7471 16.0008C11.7193 15.8679 11.7316 15.7297 11.7823 15.6037C11.833 15.4776 11.9199 15.3695 12.032 15.2928C12.1442 15.2161 12.2765 15.1744 12.4123 15.1729C12.5481 15.1713 12.6814 15.2101 12.7952 15.2842C12.909 15.3583 12.9983 15.4645 13.0519 15.5894C13.1054 15.7142 13.1207 15.8521 13.096 15.9857C13.0794 16.0747 13.0455 16.1596 12.9961 16.2354C12.9467 16.3113 12.8828 16.3766 12.8081 16.4277C12.7333 16.4788 12.6492 16.5147 12.5606 16.5332C12.472 16.5517 12.3806 16.5525 12.2916 16.5356ZM9.58379 17.674C9.45025 17.6485 9.32728 17.584 9.23042 17.4886C9.13356 17.3932 9.06716 17.2712 9.03962 17.1381C9.01208 17.0049 9.02463 16.8666 9.07568 16.7406C9.12674 16.6146 9.214 16.5066 9.32645 16.4302C9.4389 16.3538 9.57148 16.3124 9.70743 16.3114C9.84337 16.3103 9.97658 16.3496 10.0902 16.4242C10.2038 16.4989 10.2928 16.6055 10.3458 16.7307C10.3988 16.8559 10.4136 16.994 10.3881 17.1275C10.3533 17.3062 10.2491 17.4637 10.0983 17.5657C9.94757 17.6676 9.76253 17.7056 9.58379 17.6713V17.674ZM16.2238 10.9673C16.2238 11.1033 16.1835 11.2362 16.108 11.3492C16.0324 11.4623 15.9251 11.5504 15.7995 11.6024C15.6738 11.6545 15.5356 11.6681 15.4023 11.6415C15.2689 11.615 15.1464 11.5495 15.0503 11.4534C14.9541 11.3573 14.8887 11.2348 14.8622 11.1014C14.8356 10.9681 14.8492 10.8298 14.9013 10.7042C14.9533 10.5786 15.0414 10.4713 15.1545 10.3957C15.2675 10.3202 15.4004 10.2799 15.5364 10.2799C15.7187 10.2799 15.8936 10.3523 16.0225 10.4812C16.1514 10.6101 16.2238 10.785 16.2238 10.9673Z" fill="#37C976"/>
</g>
<defs>
<clipPath id="clip0_34_197">
<rect width="16.2356" height="16.2356" fill="white" transform="translate(0.0600586 0.892456)"/>
</clipPath>
</defs>
</svg>
