<svg width="18" height="18" viewBox="0 0 18 18" fill="none" xmlns="http://www.w3.org/2000/svg">
<path d="M9.03404 0.892456C4.55795 0.892456 0.91626 4.53415 0.91626 9.01024C0.91626 13.4863 4.55795 17.128 9.03404 17.128C13.5101 17.128 17.1518 13.4863 17.1518 9.01024C17.1518 4.53415 13.51 0.892456 9.03404 0.892456ZM9.03404 2.71809C11.6865 2.71809 13.959 4.36857 14.8833 6.69556H3.18509C4.10911 4.36857 6.38171 2.71809 9.03404 2.71809ZM15.326 9.01024C15.326 9.27537 15.3077 9.53622 15.2756 9.79263H9.56276L11.6946 8.12983H15.2634C15.3036 8.41771 15.326 8.71158 15.326 9.01024ZM2.7419 9.01024C2.7419 8.71158 2.7643 8.41771 2.80501 8.13H8.50002L6.23067 9.7928H2.79236C2.7602 9.53622 2.7419 9.27537 2.7419 9.01024ZM9.03404 15.3024C6.34493 15.3024 4.04497 13.6057 3.14643 11.2272H14.9216C14.0231 13.6057 11.7237 15.3024 9.03404 15.3024Z" fill="#37C976"/>
</svg>
